<?xml version="1.0" encoding="UTF-8" standalone="no"?><!DOCTYPE svg PUBLIC "-//W3C//DTD SVG 1.1//EN" "http://www.w3.org/Graphics/SVG/1.1/DTD/svg11.dtd"><svg width="100%" height="100%" viewBox="0 0 6384 6950" version="1.1" xmlns="http://www.w3.org/2000/svg" xmlns:xlink="http://www.w3.org/1999/xlink" xml:space="preserve" xmlns:serif="http://www.serif.com/" style="fill-rule:evenodd;clip-rule:evenodd;stroke-linecap:round;stroke-linejoin:round;stroke-miterlimit:1.5;"><g><ellipse cx="3364.58" cy="6752.93" rx="2164.58" ry="185.417" style="fill:#857355;stroke:#ff9015;stroke-width:20.43px;"/><path d="M282.719,2254.2c406.094,759.449 1584.6,1309.14 2973.53,1309.14c1310.97,0 2434.48,-489.718 2897.85,-1183.15c146.607,365.992 227.155,765.241 227.155,1183.15c0,1760.38 -1429.2,3189.58 -3189.58,3189.58c-1760.38,0 -3189.58,-1429.2 -3189.58,-3189.58c0,-466.5 100.366,-909.744 280.636,-1309.14Z" style="fill:#a2792e;"/><path d="M254.167,2254.2c2002.24,-490.134 3966.21,-425.307 5895.83,137.464" style="fill:none;stroke:#ff9015;stroke-width:20.43px;"/><path d="M3202.61,0c87.521,1004.98 -135.938,1731.56 -135.938,2525c-0,140.278 113.888,254.167 254.166,254.167c140.279,-0 254.167,-113.889 254.167,-254.167c0,-793.437 -224.178,-1621.19 -372.395,-2525Z" style="fill:#f8fa52;"/><path d="M3261.72,1389.58c43.76,502.488 -67.969,865.782 -67.969,1262.5c-0,70.14 56.944,127.084 127.083,127.084c70.14,-0 127.084,-56.944 127.084,-127.084c-0,-396.718 -112.089,-810.593 -186.198,-1262.5Z" style="fill:#fff;"/></g></svg>