<?xml version="1.0" encoding="UTF-8" standalone="no"?><!DOCTYPE svg PUBLIC "-//W3C//DTD SVG 1.1//EN" "http://www.w3.org/Graphics/SVG/1.1/DTD/svg11.dtd"><svg width="100%" height="100%" viewBox="0 0 6709 10780" version="1.1" xmlns="http://www.w3.org/2000/svg" xmlns:xlink="http://www.w3.org/1999/xlink" xml:space="preserve" xmlns:serif="http://www.serif.com/" style="fill-rule:evenodd;clip-rule:evenodd;stroke-linecap:round;stroke-linejoin:round;stroke-miterlimit:1.5;"><g><path d="M54.002,4040.65c578.956,637.562 1855.9,883.425 3202.94,544.885c1271.43,-319.538 2241.69,-1068.33 2522.06,-1853.8c231.393,319.22 406.826,686.795 508.689,1092.11c429.078,1707.29 -608.665,3441.74 -2315.95,3870.82c-1707.29,429.077 -3441.74,-608.666 -3870.82,-2315.95c-113.706,-452.431 -124.404,-906.77 -46.921,-1338.06Z" style="fill:#a2792e;"/><path d="M692.85,520.502c347.537,787.967 1481.13,1425.16 2866.09,1530.13c1307.22,99.078 2464.53,-304.329 2978.98,-960.764c118.527,376.026 168.671,780.221 137.086,1196.94c-133.043,1755.35 -1666.17,3072.45 -3421.52,2939.41c-1755.34,-133.043 -3072.45,-1666.17 -2939.4,-3421.52c35.256,-465.166 168.834,-899.557 378.773,-1284.19Z" style="fill:#7c5c23;"/><path d="M607.032,6276.35c406.094,759.448 1584.6,1309.14 2973.53,1309.14c1310.97,0 2434.48,-489.718 2897.85,-1183.15c146.607,365.992 227.155,765.241 227.155,1183.15c0,1760.38 -1429.2,3189.58 -3189.58,3189.58c-1760.38,-0 -3189.58,-1429.2 -3189.58,-3189.58c0,-466.5 100.366,-909.744 280.636,-1309.14Z" style="fill:#a2792e;fill-opacity:0.57;"/><path d="M737.5,520.502c2072.16,-840.36 4004.31,-630.745 5804.17,571.165" style="fill:none;stroke:#1a0f09;stroke-width:20.83px;"/></g></svg>