<?xml version="1.0" encoding="UTF-8" standalone="no"?><!DOCTYPE svg PUBLIC "-//W3C//DTD SVG 1.1//EN" "http://www.w3.org/Graphics/SVG/1.1/DTD/svg11.dtd"><svg width="100%" height="100%" viewBox="0 0 1588 471" version="1.1" xmlns="http://www.w3.org/2000/svg" xmlns:xlink="http://www.w3.org/1999/xlink" xml:space="preserve" xmlns:serif="http://www.serif.com/" style="fill-rule:evenodd;clip-rule:evenodd;stroke-linejoin:round;stroke-miterlimit:2;"><g><g><path d="M139.625,222.522c-4.031,-11.691 -12.093,-35.073 -14.547,-53.338c-3.637,-27.074 -14.143,-103.445 -7.273,-109.102c6.869,-5.657 34.347,56.167 48.489,75.159c10.587,14.216 22.41,27.868 36.368,38.792c18.587,14.547 61.016,30.508 75.159,48.489c12.403,15.77 9.294,40.813 9.698,59.4c0.381,17.54 -4.998,34.731 -7.274,52.127c-2.828,21.618 -8.889,55.359 -9.698,77.584c-0.678,18.645 10.102,59.399 4.849,55.763c-5.253,-3.637 -32.73,-56.168 -36.367,-77.584c-2.955,-17.401 11.424,-33.542 14.547,-50.914c3.233,-17.982 5.657,-38.388 4.849,-56.976c-0.802,-18.451 2.029,-40.283 -9.698,-54.551c-12.122,-14.749 -51.722,-34.751 -63.037,-33.942c-11.314,0.808 -5.562,25.78 -4.849,38.791c0.809,14.749 6.062,35.964 9.698,49.702c2.977,11.247 17.376,32.731 12.123,32.731c-4.947,-0 -43.673,-61.42 -63.037,-92.131" style="fill:url(#_Linear1);"/><path d="M285.094,291.9c0,-0 23.752,-11.886 31.519,-22.1c8.485,-11.159 16.239,-28.873 19.396,-44.853c3.232,-16.365 2.674,-35.762 -0,-53.339c-2.829,-18.588 -12.527,-40.812 -16.972,-58.188c-3.889,-15.202 -7.642,-31.641 -9.698,-46.065c-2.419,-16.973 5.458,-40.204 14.547,-50.914c5.632,-6.636 14.547,-10.506 21.821,-12.123c7.144,-1.587 14.951,0.405 21.82,2.425c6.869,2.02 13.121,4.735 19.396,9.698c4.869,3.851 9.121,11.811 11.836,16.355c1.274,2.132 2.209,6.47 2.711,7.89c0.808,2.286 19.8,22.628 19.396,24.245c-0.404,1.616 -20.695,-14.745 -21.821,-14.547c-13.357,2.34 -25.111,-13.526 -26.669,-26.67c-2.369,-19.985 -45.19,-3.122 -46.065,19.396c-0.475,12.207 2.082,27.662 4.849,41.217c4.04,19.8 15.355,57.379 19.396,77.583c2.87,14.352 6.61,29.111 4.849,43.641c-2.425,20.002 -7.209,53.105 -19.396,76.371c-13.335,25.458 -60.613,76.372 -60.613,76.372l9.698,-66.394Z" style="fill:url(#_Linear2);"/><path d="M103.384,117.546c18.848,10.51 -88.721,-113.277 -82.934,-104.905c16.711,24.182 39.52,92.081 82.934,104.905Z" style="fill:url(#_Linear3);"/><path d="M104.846,181.019c-0,-0 15.277,-20.112 8.048,-20.137c-21.244,-0.073 -86.029,-35.15 -102.679,-51.444c-31.268,-30.603 50.7,69.425 94.631,71.581Z" style="fill:url(#_Linear4);"/><path d="M127.351,243.432c-0,-0 1.944,-15.223 -1.619,-21.444c-3.722,-6.498 -20.713,-17.546 -20.713,-17.546c-51.691,-18.861 -113.057,-14.255 -91.009,-9.053c8.538,2.014 95.739,8.529 113.341,48.043Z" style="fill:url(#_Linear5);"/><path d="M78.12,291.86c-74.173,-28.542 -45.8,-32.032 113.087,20.025c9.622,3.153 -78.644,-6.772 -113.087,-20.025Z" style="fill:url(#_Linear6);"/></g><text x="420.872px" y="387.473px" style="font-family:'Differentiator', monospace;font-size:150px;fill:url(#_Linear7);">Artisan Cey</text></g><defs><linearGradient id="_Linear1" x1="0" y1="0" x2="1" y2="0" gradientUnits="userSpaceOnUse" gradientTransform="matrix(326.711,234.598,-263.131,366.447,2.55446,233.026)"><stop offset="0" style="stop-color:#f8bf56;stop-opacity:1"/><stop offset="0.34" style="stop-color:#e0d7c0;stop-opacity:1"/><stop offset="1" style="stop-color:#96d3b2;stop-opacity:1"/></linearGradient><linearGradient id="_Linear2" x1="0" y1="0" x2="1" y2="0" gradientUnits="userSpaceOnUse" gradientTransform="matrix(326.711,234.598,-263.131,366.447,2.55446,233.026)"><stop offset="0" style="stop-color:#f8bf56;stop-opacity:1"/><stop offset="0.34" style="stop-color:#e0d7c0;stop-opacity:1"/><stop offset="1" style="stop-color:#96d3b2;stop-opacity:1"/></linearGradient><linearGradient id="_Linear3" x1="0" y1="0" x2="1" y2="0" gradientUnits="userSpaceOnUse" gradientTransform="matrix(326.711,234.598,-263.131,366.447,2.55446,233.026)"><stop offset="0" style="stop-color:#f8bf56;stop-opacity:1"/><stop offset="0.34" style="stop-color:#e0d7c0;stop-opacity:1"/><stop offset="1" style="stop-color:#96d3b2;stop-opacity:1"/></linearGradient><linearGradient id="_Linear4" x1="0" y1="0" x2="1" y2="0" gradientUnits="userSpaceOnUse" gradientTransform="matrix(326.711,234.598,-263.131,366.447,2.55446,233.026)"><stop offset="0" style="stop-color:#f8bf56;stop-opacity:1"/><stop offset="0.34" style="stop-color:#e0d7c0;stop-opacity:1"/><stop offset="1" style="stop-color:#96d3b2;stop-opacity:1"/></linearGradient><linearGradient id="_Linear5" x1="0" y1="0" x2="1" y2="0" gradientUnits="userSpaceOnUse" gradientTransform="matrix(326.711,234.598,-263.131,366.447,2.55446,233.026)"><stop offset="0" style="stop-color:#f8bf56;stop-opacity:1"/><stop offset="0.34" style="stop-color:#e0d7c0;stop-opacity:1"/><stop offset="1" style="stop-color:#96d3b2;stop-opacity:1"/></linearGradient><linearGradient id="_Linear6" x1="0" y1="0" x2="1" y2="0" gradientUnits="userSpaceOnUse" gradientTransform="matrix(326.711,234.598,-263.131,366.447,2.55446,233.026)"><stop offset="0" style="stop-color:#f8bf56;stop-opacity:1"/><stop offset="0.34" style="stop-color:#e0d7c0;stop-opacity:1"/><stop offset="1" style="stop-color:#96d3b2;stop-opacity:1"/></linearGradient><linearGradient id="_Linear7" x1="0" y1="0" x2="1" y2="0" gradientUnits="userSpaceOnUse" gradientTransform="matrix(-1162.5,-391.667,391.667,-1162.5,1583.37,358.333)"><stop offset="0" style="stop-color:#f8bf56;stop-opacity:1"/><stop offset="0.34" style="stop-color:#e0d7c0;stop-opacity:1"/><stop offset="1" style="stop-color:#96d3b2;stop-opacity:1"/></linearGradient></defs></svg>