<?xml version="1.0" encoding="UTF-8" standalone="no"?><!DOCTYPE svg PUBLIC "-//W3C//DTD SVG 1.1//EN" "http://www.w3.org/Graphics/SVG/1.1/DTD/svg11.dtd"><svg width="100%" height="100%" viewBox="0 0 1584 467" version="1.1" xmlns="http://www.w3.org/2000/svg" xmlns:xlink="http://www.w3.org/1999/xlink" xml:space="preserve" xmlns:serif="http://www.serif.com/" style="fill-rule:evenodd;clip-rule:evenodd;stroke-linejoin:round;stroke-miterlimit:2;"><g><g><path d="M139.527,220.978c-4.032,-11.691 -12.094,-35.074 -14.547,-53.339c-3.637,-27.073 -14.143,-103.445 -7.274,-109.102c6.87,-5.657 34.347,56.167 48.49,75.159c10.586,14.216 22.409,27.868 36.367,38.792c18.588,14.547 61.017,30.508 75.159,48.49c12.403,15.769 9.294,40.812 9.698,59.4c0.382,17.54 -4.997,34.731 -7.273,52.126c-2.829,21.619 -8.89,55.359 -9.698,77.584c-0.678,18.646 10.102,59.4 4.849,55.763c-5.253,-3.637 -32.731,-56.167 -36.367,-77.583c-2.955,-17.402 11.423,-33.543 14.547,-50.915c3.232,-17.981 5.657,-38.387 4.848,-56.975c-0.802,-18.452 2.03,-40.283 -9.697,-54.551c-12.123,-14.749 -51.723,-34.751 -63.037,-33.943c-11.314,0.808 -5.562,25.78 -4.849,38.792c0.808,14.749 6.061,35.963 9.698,49.702c2.977,11.247 17.375,32.73 12.122,32.73c-4.946,0 -43.673,-61.42 -63.036,-92.13" style="fill:url(#_Linear1);"/><path d="M284.996,290.355c-0,-0 23.751,-11.886 31.518,-22.1c8.486,-11.158 16.24,-28.872 19.396,-44.853c3.233,-16.365 2.675,-35.761 0,-53.338c-2.828,-18.588 -12.526,-40.813 -16.971,-58.188c-3.889,-15.202 -7.643,-31.642 -9.698,-46.065c-2.419,-16.974 5.457,-40.205 14.547,-50.915c5.632,-6.636 14.547,-10.506 21.82,-12.122c7.144,-1.588 14.951,0.404 21.82,2.424c6.87,2.021 13.121,4.736 19.396,9.698c4.869,3.851 9.122,11.811 11.837,16.355c1.273,2.132 2.209,6.471 2.71,7.89c0.808,2.286 19.8,22.629 19.396,24.245c-0.404,1.616 -20.694,-14.744 -21.82,-14.547c-13.358,2.341 -25.112,-13.526 -26.67,-26.669c-2.368,-19.985 -45.19,-3.123 -46.065,19.396c-0.474,12.207 2.083,27.662 4.849,41.216c4.041,19.8 15.355,57.38 19.396,77.584c2.87,14.352 6.61,29.11 4.849,43.64c-2.424,20.002 -7.209,53.105 -19.396,76.372c-13.335,25.457 -60.612,76.371 -60.612,76.371l9.698,-66.394Z" style="fill:url(#_Linear2);"/><path d="M103.286,116.002c18.847,10.51 -88.721,-113.278 -82.935,-104.905c16.711,24.181 39.521,92.08 82.935,104.905Z" style="fill:url(#_Linear3);"/><path d="M104.747,179.474c0,-0 15.277,-20.112 8.049,-20.136c-21.245,-0.073 -86.03,-35.15 -102.679,-51.445c-31.269,-30.603 50.699,69.426 94.63,71.581Z" style="fill:url(#_Linear4);"/><path d="M127.252,241.887c0,0 1.944,-15.223 -1.618,-21.443c-3.722,-6.498 -20.714,-17.546 -20.714,-17.546c-51.691,-18.861 -113.056,-14.256 -91.009,-9.054c8.539,2.015 95.739,8.53 113.341,48.043Z" style="fill:url(#_Linear5);"/><path d="M78.022,290.315c-74.173,-28.541 -45.801,-32.031 113.086,20.025c9.623,3.153 -78.643,-6.772 -113.086,-20.025Z" style="fill:url(#_Linear6);"/></g><text x="420.774px" y="385.929px" style="font-family:'Differentiator', monospace;font-size:150px;fill:#616161;">Artisan Cey</text></g><defs><linearGradient id="_Linear1" x1="0" y1="0" x2="1" y2="0" gradientUnits="userSpaceOnUse" gradientTransform="matrix(326.711,234.598,-263.131,366.447,2.45597,231.481)"><stop offset="0" style="stop-color:#f8bf56;stop-opacity:1"/><stop offset="0.34" style="stop-color:#e0d7c0;stop-opacity:1"/><stop offset="1" style="stop-color:#96d3b2;stop-opacity:1"/></linearGradient><linearGradient id="_Linear2" x1="0" y1="0" x2="1" y2="0" gradientUnits="userSpaceOnUse" gradientTransform="matrix(326.711,234.598,-263.131,366.447,2.45597,231.481)"><stop offset="0" style="stop-color:#f8bf56;stop-opacity:1"/><stop offset="0.34" style="stop-color:#e0d7c0;stop-opacity:1"/><stop offset="1" style="stop-color:#96d3b2;stop-opacity:1"/></linearGradient><linearGradient id="_Linear3" x1="0" y1="0" x2="1" y2="0" gradientUnits="userSpaceOnUse" gradientTransform="matrix(326.711,234.598,-263.131,366.447,2.45597,231.481)"><stop offset="0" style="stop-color:#f8bf56;stop-opacity:1"/><stop offset="0.34" style="stop-color:#e0d7c0;stop-opacity:1"/><stop offset="1" style="stop-color:#96d3b2;stop-opacity:1"/></linearGradient><linearGradient id="_Linear4" x1="0" y1="0" x2="1" y2="0" gradientUnits="userSpaceOnUse" gradientTransform="matrix(326.711,234.598,-263.131,366.447,2.45597,231.481)"><stop offset="0" style="stop-color:#f8bf56;stop-opacity:1"/><stop offset="0.34" style="stop-color:#e0d7c0;stop-opacity:1"/><stop offset="1" style="stop-color:#96d3b2;stop-opacity:1"/></linearGradient><linearGradient id="_Linear5" x1="0" y1="0" x2="1" y2="0" gradientUnits="userSpaceOnUse" gradientTransform="matrix(326.711,234.598,-263.131,366.447,2.45597,231.481)"><stop offset="0" style="stop-color:#f8bf56;stop-opacity:1"/><stop offset="0.34" style="stop-color:#e0d7c0;stop-opacity:1"/><stop offset="1" style="stop-color:#96d3b2;stop-opacity:1"/></linearGradient><linearGradient id="_Linear6" x1="0" y1="0" x2="1" y2="0" gradientUnits="userSpaceOnUse" gradientTransform="matrix(326.711,234.598,-263.131,366.447,2.45597,231.481)"><stop offset="0" style="stop-color:#f8bf56;stop-opacity:1"/><stop offset="0.34" style="stop-color:#e0d7c0;stop-opacity:1"/><stop offset="1" style="stop-color:#96d3b2;stop-opacity:1"/></linearGradient></defs></svg>